<?xml version="1.0" encoding="utf-8"?>
<!-- Generator: Adobe Illustrator 25.3.0, SVG Export Plug-In . SVG Version: 6.00 Build 0)  -->
<svg version="1.1" id="Layer_1" xmlns="http://www.w3.org/2000/svg" xmlns:xlink="http://www.w3.org/1999/xlink" x="0px" y="0px"
	 viewBox="0 0 56.2 51.9" style="enable-background:new 0 0 56.2 51.9;" xml:space="preserve">
<style type="text/css">
	.st0{fill:#FFFFFF;}
</style>
<path id="path1_fill_1_" class="st0" d="M42.2,23.8c-0.7-3-2.4-5.7-4.7-7.8c-2.8-2.4-6.3-3.8-10-3.8c-8.3,0-15.1,6.8-15.1,15.1
	c0,0.1,0,0.3,0,0.4c-0.1,0-0.3,0-0.4,0c-6.6,0-12,5.4-12,12.1s5.4,12.1,12.1,12.1h30.1c7.7,0,14-6.3,14-14
	C56.3,30.1,50,23.8,42.2,23.8z M42.2,48.6H12.1c-4.8,0-8.8-3.9-8.8-8.8c0-4.8,3.9-8.8,8.8-8.8c0.6,0,1.3,0.1,1.9,0.2l2.4,0.5
	L16,29.3c-0.1-0.7-0.2-1.3-0.2-2c0-6.5,5.3-11.8,11.8-11.8c5.9,0,10.9,4.4,11.7,10.2l0.2,1.6l1.6-0.2c0.4,0,0.8-0.1,1.2-0.1
	C48.2,27,53,31.8,53,37.7C53,43.7,48.1,48.6,42.2,48.6z"/>
<path id="path2_fill_1_" class="st0" d="M25.5,39c-0.1,0.3-0.3,0.6-0.5,0.8s-0.4,0.4-0.7,0.5c-0.3,0.1-0.5,0.2-0.8,0.3
	s-0.5,0.1-0.8,0.1c-0.5,0-1-0.1-1.4-0.3s-0.8-0.5-1.1-0.8c-0.3-0.4-0.5-0.8-0.7-1.2c-0.2-0.5-0.2-0.9-0.2-1.4s0.1-0.9,0.2-1.4
	s0.3-0.9,0.6-1.2c0.3-0.4,0.6-0.6,1-0.9c0.4-0.2,0.9-0.3,1.5-0.3c0.3,0,0.5,0,0.8,0.1s0.5,0.1,0.8,0.3c0.3,0.1,0.5,0.3,0.7,0.5
	s0.4,0.5,0.5,0.8l2.2-1.6c-0.4-0.8-1.1-1.5-1.9-2c-0.9-0.5-1.9-0.8-3.1-0.8c-1,0-1.9,0.2-2.7,0.6c-0.8,0.4-1.4,0.8-2,1.4
	c-0.5,0.6-1,1.3-1.2,2c-0.3,0.8-0.4,1.5-0.4,2.3s0.2,1.6,0.5,2.4c0.3,0.8,0.7,1.5,1.3,2.1c0.6,0.6,1.2,1.1,2,1.5s1.6,0.6,2.5,0.6
	c0.5,0,1.1-0.1,1.6-0.2c0.5-0.1,1.1-0.3,1.5-0.6c0.5-0.2,0.9-0.6,1.3-0.9c0.4-0.4,0.7-0.8,0.8-1.2L25.5,39z"/>
<path id="path3_fill_1_" class="st0" d="M40.6,34.6c-0.3-0.8-0.7-1.5-1.3-2.1c-0.5-0.6-1.2-1.1-2-1.5s-1.6-0.6-2.6-0.6
	c-0.9,0-1.8,0.2-2.5,0.5c-0.8,0.3-1.4,0.8-2,1.4c-0.6,0.6-1,1.3-1.3,2c-0.3,0.8-0.5,1.6-0.5,2.4c0,0.8,0.2,1.6,0.5,2.4
	c0.3,0.8,0.7,1.5,1.3,2.1c0.5,0.6,1.2,1.1,2,1.4c0.8,0.4,1.6,0.6,2.6,0.6c0.9,0,1.8-0.2,2.5-0.5c0.8-0.4,1.4-0.8,2-1.4
	c0.6-0.6,1-1.3,1.3-2c0.3-0.8,0.5-1.6,0.5-2.4C41.1,36.2,40.9,35.4,40.6,34.6z M37.9,38.3c-0.1,0.5-0.3,0.9-0.6,1.2
	c-0.3,0.4-0.6,0.7-1,0.9s-0.9,0.3-1.5,0.3c-0.5,0-1-0.1-1.4-0.3s-0.8-0.5-1-0.9c-0.3-0.4-0.5-0.8-0.6-1.2c-0.1-0.5-0.2-0.9-0.2-1.4
	s0.1-0.9,0.2-1.4s0.3-0.9,0.6-1.2c0.3-0.4,0.6-0.6,1-0.9c0.4-0.2,0.9-0.3,1.5-0.3c0.5,0,1,0.1,1.4,0.3s0.8,0.5,1,0.8
	c0.3,0.3,0.5,0.8,0.6,1.2c0.1,0.5,0.2,0.9,0.2,1.4C38.1,37.4,38,37.9,37.9,38.3z"/>
<path id="path4_fill_1_" class="st0" d="M43,44.3c0.1-0.1,0.1-0.1,0.2-0.2c0.1-0.1,0.2-0.1,0.3-0.2c0.1-0.1,0.2-0.1,0.3-0.2
	c0.1-0.1,0.2-0.1,0.3-0.2c0.1-0.1,0.2-0.2,0.4-0.2c0.1-0.1,0.2-0.2,0.3-0.3s0.2-0.2,0.2-0.4c0.1-0.1,0.1-0.3,0.1-0.5
	c0-0.4-0.2-0.8-0.5-1.1s-0.8-0.4-1.4-0.4c-0.2,0-0.5,0-0.7,0.1c-0.2,0-0.4,0.1-0.6,0.2c-0.2,0.1-0.4,0.2-0.5,0.3
	c-0.2,0.1-0.3,0.2-0.4,0.3l0.9,1c0.2-0.2,0.3-0.3,0.5-0.4c0.2-0.1,0.4-0.2,0.6-0.2c0.2,0,0.4,0,0.5,0.1s0.2,0.2,0.2,0.4
	c0,0.1,0,0.1-0.1,0.2c0,0.1-0.1,0.1-0.2,0.2c-0.1,0.1-0.2,0.2-0.4,0.3s-0.4,0.2-0.7,0.4c-0.2,0.1-0.4,0.3-0.6,0.4
	c-0.2,0.1-0.3,0.3-0.4,0.5c-0.1,0.2-0.2,0.4-0.2,0.6c0,0.2-0.1,0.4-0.1,0.7h4.2v-1.2H43V44.3z"/>
<path id="path5_fill_1_" class="st0" d="M6.9,20.5c-0.1,0.8,0.5,1.5,1.3,1.4c0.8,0,1.6-0.7,1.6-1.5c0.6-5.6,5.7-10.4,11.3-10.6
	c0.4,0,0.8-0.2,1.1-0.5c0.3-0.3,0.5-0.7,0.5-1.1c0.1-0.8-0.5-1.5-1.3-1.4C14.3,7.1,7.7,13.2,6.9,20.5z"/>
<path id="path6_fill_1_" class="st0" d="M22.3,0C11.2,0.4,1.2,9.7,0,20.7c-0.1,0.8,0.5,1.5,1.3,1.4c0.8,0,1.6-0.7,1.6-1.5
	C3.4,16,5.6,11.7,9.2,8.4C12.9,5.1,17.4,3.1,22,3c0.4,0,0.8-0.2,1.1-0.5c0.3-0.3,0.5-0.7,0.5-1.1C23.7,0.6,23.1,0,22.3,0z"/>
</svg>
